<?xml version="1.0" standalone="no"?>
<!DOCTYPE svg PUBLIC "-//W3C//DTD SVG 20010904//EN"
 "http://www.w3.org/TR/2001/REC-SVG-20010904/DTD/svg10.dtd">
<svg version="1.0" xmlns="http://www.w3.org/2000/svg"
 width="1024.000000pt" height="1024.000000pt" viewBox="0 0 1024.000000 1024.000000"
 preserveAspectRatio="xMidYMid meet">

<g transform="translate(0.000000,1024.000000) scale(0.100000,-0.100000)"
fill="#000000" stroke="none">
<path d="M4910 8683 c-83 -30 -88 -147 -10 -221 22 -20 40 -45 40 -56 0 -15
-3 -16 -15 -6 -12 10 -21 10 -45 0 -17 -7 -43 -10 -59 -7 -19 4 -31 2 -34 -7
-3 -7 -28 -16 -57 -20 -28 -4 -53 -12 -56 -19 -4 -11 -24 -13 -66 -8 -3 1 -11
15 -17 31 -5 17 -16 30 -24 30 -19 0 -47 -33 -47 -55 0 -10 -14 -30 -31 -44
-31 -27 -34 -42 -23 -98 5 -25 2 -34 -10 -39 -26 -10 -80 9 -84 30 -6 29 -37
53 -71 54 -18 0 -40 6 -49 14 -9 7 -14 9 -10 4 8 -10 -8 -46 -21 -46 -5 0 -18
15 -29 34 -40 67 -161 75 -172 11 -3 -17 -2 -37 3 -46 6 -10 6 -27 0 -45 -9
-25 -15 -29 -49 -29 -26 0 -53 -9 -81 -27 -49 -32 -83 -36 -83 -10 0 9 -10 35
-21 57 -18 33 -59 139 -59 152 0 1 6 3 14 3 37 0 53 74 20 87 -8 3 -14 11 -14
19 0 10 -12 13 -45 10 -25 -2 -48 1 -51 5 -9 15 -24 10 -31 -8 -4 -10 -13 -24
-20 -31 -19 -19 -16 -33 7 -39 15 -4 18 -9 10 -18 -7 -9 -6 -16 5 -25 22 -18
36 -83 29 -131 -8 -48 -52 -99 -84 -99 -20 0 -21 -3 -25 -80 -3 -49 -54 -130
-101 -160 -25 -15 -53 -27 -62 -25 -9 2 -25 4 -34 4 -14 1 -18 10 -18 34 0 41
-4 45 -33 40 -49 -10 -69 -36 -74 -99 -3 -32 -4 -77 -2 -99 5 -88 4 -154 -3
-161 -4 -3 -38 11 -75 33 -37 22 -111 61 -163 87 -52 26 -107 59 -122 73 -24
23 -26 31 -21 68 5 37 2 44 -22 63 -15 12 -31 22 -35 22 -4 0 -12 -17 -18 -37
-6 -21 -23 -47 -37 -57 -14 -10 -25 -23 -25 -28 0 -5 -7 -17 -16 -25 -13 -13
-20 -14 -35 -5 -10 7 -22 12 -26 12 -5 0 6 -9 23 -20 20 -13 57 -22 106 -26
69 -6 77 -9 116 -46 42 -39 42 -39 27 -73 -7 -19 -12 -35 -10 -35 3 0 -11 -26
-30 -57 -19 -32 -35 -62 -35 -67 0 -5 12 -19 27 -32 24 -20 25 -26 15 -49 -15
-32 -15 -38 -2 -30 17 11 11 -5 -16 -40 l-25 -34 35 -23 c20 -13 36 -26 36
-30 0 -12 -28 -9 -50 4 -16 10 -24 10 -42 -1 -12 -7 -57 -15 -100 -17 -44 -2
-88 -8 -98 -14 -26 -14 -36 -84 -39 -266 l-1 -61 -40 -16 c-28 -11 -40 -21
-40 -36 0 -11 4 -22 9 -25 16 -10 22 -59 11 -85 -6 -15 -23 -32 -39 -39 -32
-14 -49 -42 -27 -42 20 0 15 -52 -6 -68 -10 -7 -24 -34 -31 -60 l-14 -47 -51
1 -51 1 -5 -36 c-2 -20 -5 -56 -6 -80 0 -24 -6 -53 -12 -65 -6 -11 -12 -44
-14 -74 -3 -44 -1 -53 11 -48 8 3 15 1 15 -4 0 -6 -4 -10 -9 -10 -6 0 -9 -18
-9 -41 0 -34 -5 -46 -31 -70 -27 -24 -30 -32 -21 -49 6 -11 15 -20 20 -20 6 0
19 -20 31 -45 12 -25 26 -48 31 -51 11 -7 58 15 70 31 5 6 13 4 22 -5 24 -25
-3 -75 -45 -84 -18 -3 -37 -2 -42 3 -6 6 -21 -1 -39 -17 -24 -22 -28 -32 -24
-56 3 -16 15 -36 26 -46 27 -24 25 -47 -5 -54 -28 -7 -32 -27 -9 -47 11 -9 21
-10 32 -3 41 24 76 -24 50 -66 -11 -17 -11 -22 0 -29 10 -6 10 -14 2 -35 -13
-35 -13 -36 6 -36 8 0 13 -4 10 -9 -3 -4 6 -19 19 -31 31 -29 31 -35 -1 -36
-31 -2 -68 -35 -84 -75 -10 -24 -10 -33 5 -55 9 -15 26 -29 36 -31 10 -3 16
-9 13 -14 -3 -5 5 -9 18 -9 32 0 69 -27 62 -45 -4 -8 6 -35 20 -59 14 -25 26
-49 26 -54 0 -5 -17 -17 -39 -26 -36 -17 -40 -17 -70 -1 -39 19 -90 12 -92
-13 -4 -42 -8 -69 -15 -91 -6 -21 -5 -23 17 -16 13 4 42 19 64 33 92 62 185
86 185 50 0 -5 20 -33 44 -61 24 -29 50 -65 59 -82 8 -16 27 -41 41 -55 25
-22 29 -23 59 -11 59 25 84 25 97 2 13 -25 6 -41 -19 -41 -32 0 -53 -34 -46
-74 8 -40 27 -57 120 -104 43 -22 65 -40 79 -66 11 -21 34 -43 55 -53 34 -17
36 -21 35 -66 0 -42 -5 -52 -32 -73 -57 -45 -66 -130 -20 -174 27 -25 45 -25
71 -3 15 13 21 15 24 6 14 -39 73 20 73 71 0 17 -9 46 -20 63 -16 27 -18 37
-8 58 6 14 17 25 23 25 7 0 63 -24 126 -54 63 -29 131 -59 152 -67 35 -12 37
-15 37 -56 0 -24 6 -52 12 -63 10 -16 10 -24 1 -39 -10 -15 -9 -22 2 -31 8 -7
13 -24 11 -41 -2 -20 4 -37 20 -54 13 -15 24 -31 24 -36 0 -7 26 -8 73 -3 61
5 81 12 129 45 55 37 87 48 89 32 1 -8 2 -15 15 -81 3 -17 10 -32 14 -32 5 0
10 -12 12 -27 3 -25 8 -28 43 -31 22 -2 42 -8 46 -13 3 -5 14 1 25 13 16 19
16 20 1 9 -15 -12 -17 -12 -11 3 4 10 13 15 21 12 21 -8 53 16 53 41 0 12 16
38 35 59 l35 37 35 -19 c24 -13 31 -21 24 -30 -7 -8 -2 -29 15 -66 28 -62 40
-74 76 -76 16 -1 38 -16 60 -42 19 -22 41 -40 48 -40 7 0 21 -5 32 -12 16 -10
23 -9 43 10 22 21 57 30 57 15 0 -20 -41 -66 -81 -91 -57 -37 -63 -44 -94
-127 -35 -91 -55 -177 -55 -242 0 -52 0 -52 36 -59 42 -8 46 -4 62 61 16 64
95 228 132 275 32 40 151 134 220 172 92 52 144 63 295 62 195 0 291 -29 446
-135 108 -73 196 -199 233 -334 10 -33 19 -68 22 -77 6 -19 54 -33 84 -23 16
5 20 15 20 53 -1 166 -122 397 -259 492 -27 19 -50 40 -50 45 -1 6 19 18 43
28 32 13 53 16 82 10 68 -14 93 -6 110 35 9 20 22 50 30 65 8 16 14 36 14 44
0 11 6 14 21 10 17 -5 18 -3 7 10 -12 15 -10 15 17 9 80 -20 181 -34 189 -25
17 15 44 10 51 -10 3 -10 15 -27 26 -37 17 -15 24 -16 52 -6 21 8 44 9 63 3
16 -4 56 -5 89 0 33 5 67 6 76 3 16 -5 33 -64 18 -64 -17 0 9 -56 31 -67 32
-16 36 -9 11 16 -28 28 -29 94 -1 123 22 23 26 43 11 53 -9 5 -4 164 5 174 4
4 82 -48 89 -60 8 -13 -5 -36 -27 -46 -11 -5 -26 -26 -33 -47 -12 -33 -11 -37
3 -31 34 13 101 24 174 29 86 5 140 26 155 59 6 12 18 46 27 76 16 52 16 55
-5 90 -12 20 -27 40 -35 44 -18 10 -19 61 -1 54 6 -2 11 -10 10 -16 -2 -7 17
-11 55 -11 44 0 63 5 75 18 10 10 17 23 17 28 0 6 6 18 13 28 13 18 16 16 51
-19 28 -27 43 -35 59 -31 28 7 63 66 46 77 -7 4 -8 12 -3 20 5 8 9 25 9 39 0
20 6 26 28 28 37 4 44 27 54 154 l8 103 50 5 c28 3 56 9 62 13 7 4 32 1 55 -7
45 -15 93 -12 105 8 4 6 10 42 13 81 l5 70 53 3 c46 3 54 6 62 28 5 13 18 24
28 24 24 0 52 -31 52 -58 0 -16 10 -24 48 -35 55 -16 68 -13 75 15 4 14 11 19
23 14 28 -11 44 11 33 47 -12 43 -32 60 -69 60 -22 0 -29 4 -26 14 7 18 -22
29 -37 14 -6 -6 -21 -11 -34 -11 -24 0 -32 -15 -11 -22 7 -3 9 -12 5 -22 -5
-13 -12 -16 -25 -10 -9 5 -52 7 -94 6 -52 -2 -78 1 -78 8 0 6 -6 10 -12 8 -22
-4 -118 12 -118 20 1 19 21 34 55 42 43 10 55 6 55 -16 0 -18 24 -44 39 -44
19 0 12 23 -15 51 l-26 27 46 22 c25 13 47 29 50 37 7 18 -3 43 -18 43 -8 0
-12 14 -11 36 1 35 33 73 62 74 26 0 45 49 48 121 2 44 8 76 16 84 21 19 77
35 121 35 45 0 59 21 34 49 -9 10 -16 32 -16 49 0 17 -4 34 -10 37 -16 10 -12
34 10 57 23 25 27 86 6 94 -8 3 -16 14 -19 24 -4 15 -18 20 -67 26 -57 6 -61
8 -55 28 39 120 55 216 36 216 -5 0 -11 8 -14 18 -2 9 -8 26 -13 37 -7 20 -7
20 14 1 l22 -19 -22 40 -22 40 35 42 c29 37 35 52 39 112 3 42 1 70 -5 72 -5
2 -10 10 -10 18 -2 30 -19 73 -36 90 -11 11 -19 33 -19 51 0 18 -1 49 -3 68
-2 19 -4 43 -5 53 -1 9 -21 38 -44 63 -35 38 -40 48 -31 64 11 16 10 17 -17 7
-23 -9 -33 -8 -42 1 -11 11 -10 15 5 23 27 15 87 70 87 79 0 4 -13 13 -30 20
-16 7 -30 16 -30 20 0 4 -15 10 -32 14 -56 11 -89 30 -82 46 19 44 16 60 -21
99 -43 45 -87 51 -93 12 -2 -12 -10 -25 -18 -28 -8 -3 -11 -9 -8 -14 3 -5 2
-9 -3 -8 -18 3 -33 -2 -33 -11 0 -5 7 -10 16 -10 22 0 13 -21 -14 -31 -17 -6
-24 -3 -33 14 -23 43 -20 74 11 107 26 28 28 34 15 46 -13 13 -13 18 0 38 14
21 13 25 -5 46 -11 13 -20 27 -20 31 0 5 -18 27 -40 51 -22 24 -42 50 -45 58
-6 18 -69 60 -90 60 -8 0 -15 4 -15 9 0 18 -58 30 -95 20 -54 -15 -72 6 -37
44 9 10 17 31 17 46 0 22 -4 27 -17 23 -31 -8 -20 7 16 22 20 8 40 27 50 47
21 42 20 52 -4 74 -23 21 -25 46 -8 75 11 17 8 24 -20 53 -22 23 -32 42 -32
65 0 35 -19 43 -40 17 -7 -8 -17 -15 -22 -15 -10 0 -16 -5 -73 -55 -43 -38
-70 -48 -40 -15 18 20 18 21 -1 14 -10 -4 -27 -13 -38 -20 -10 -7 -24 -10 -30
-8 -7 3 -25 0 -40 -6 -24 -9 -31 -7 -45 9 -14 16 -19 17 -35 5 -26 -19 -39 -7
-21 19 17 24 20 41 6 33 -5 -3 -11 9 -15 26 -5 25 -9 29 -18 20 -15 -15 -32
-16 -23 -2 9 14 -13 40 -34 40 -9 0 -32 -9 -52 -19 -30 -16 -38 -17 -59 -6
-17 9 -29 10 -37 3 -13 -10 -33 -3 -33 13 0 5 6 9 13 9 6 0 22 24 35 53 22 52
30 103 13 93 -5 -3 -20 3 -32 14 -13 11 -19 19 -12 20 6 0 9 9 6 20 -3 11 -10
20 -17 19 -30 -4 -45 2 -40 15 3 9 -6 18 -27 25 -40 14 -72 14 -64 1 5 -9 -50
-90 -66 -98 -4 -2 -22 -32 -40 -67 -21 -41 -36 -60 -40 -53 -6 9 -10 8 -15 -5
-3 -9 -13 -17 -22 -17 -12 0 -11 4 6 20 12 12 22 32 22 46 0 14 7 32 15 40 9
9 15 34 15 59 l0 44 -57 16 c-70 21 -181 37 -194 29 -5 -3 -39 -2 -75 2 -62 6
-67 9 -80 38 -11 27 -13 28 -14 9 0 -13 -5 -23 -12 -23 -6 0 -9 3 -5 6 9 10
-21 62 -42 74 -11 5 -27 10 -37 10 -9 0 -22 7 -28 15 -11 15 -88 28 -112 18
-8 -3 -14 -11 -14 -19 0 -17 -17 -18 -23 -1 -4 7 -6 6 -6 -4 -1 -9 -7 -21 -13
-27 -17 -13 -246 -23 -253 -11 -4 5 -14 9 -23 9 -26 0 -51 34 -48 64 3 22 -1
26 -23 26 -63 0 -123 72 -120 144 l2 31 4 -30 c10 -75 55 -122 105 -110 13 3
39 7 58 9 19 2 34 9 32 15 -1 7 5 25 13 42 34 64 -29 150 -108 148 -23 0 -49
-3 -57 -6z m-5 -53 c3 -5 -3 -10 -15 -10 -12 0 -18 5 -15 10 3 6 10 10 15 10
5 0 12 -4 15 -10z m75 -45 c0 -8 -6 -15 -14 -15 -17 0 -28 14 -19 24 12 12 33
6 33 -9z m80 -22 c0 -22 -39 -63 -61 -63 -24 0 -49 11 -49 21 0 5 12 9 26 9
15 0 35 10 47 25 26 29 37 31 37 8z m495 -262 c10 -17 -11 -21 -31 -6 -18 14
-18 14 3 15 12 0 24 -4 28 -9z m1356 -466 c-1 -15 -24 -12 -29 3 -3 9 2 13 12
10 10 -1 17 -7 17 -13z m-61 -15 c0 -5 -4 -10 -10 -10 -5 0 -10 5 -10 10 0 6
5 10 10 10 6 0 10 -4 10 -10z m40 -28 c0 -13 -12 -22 -22 -16 -10 6 -1 24 13
24 5 0 9 -4 9 -8z m340 -768 c0 -8 -5 -12 -10 -9 -6 4 -8 11 -5 16 9 14 15 11
15 -7z m-1353 -513 c260 -140 426 -370 474 -659 14 -84 13 -592 -1 -716 -23
-199 -92 -351 -225 -493 -102 -109 -171 -157 -285 -196 l-85 -30 -678 -5
c-794 -5 -777 -7 -955 74 -154 70 -343 318 -395 519 -28 107 -37 224 -37 500
0 361 20 474 112 645 81 150 181 250 338 340 122 69 119 69 935 67 l720 -2 82
-44z m-3537 -121 c0 -5 -7 -10 -16 -10 -8 0 -12 5 -9 10 3 6 10 10 16 10 5 0
9 -4 9 -10z m55 -640 c3 -5 1 -10 -4 -10 -6 0 -11 5 -11 10 0 6 2 10 4 10 3 0
8 -4 11 -10z m205 -838 c0 -14 -11 -21 -26 -15 -21 8 -17 23 6 23 11 0 20 -4
20 -8z m-62 -14 c-6 -18 -25 -21 -25 -3 0 8 7 15 15 15 7 0 12 -5 10 -12z
m2814 -880 c2 -139 3 -254 3 -255 0 -1 -38 10 -85 25 -73 22 -104 26 -220 26
-128 0 -195 -10 -332 -50 -17 -5 -18 12 -18 250 l0 256 325 0 324 0 3 -252z
m-2337 130 c-9 -41 -12 -45 -27 -30 -9 9 -9 18 0 37 17 37 35 32 27 -7z m80
-17 c3 -5 1 -12 -5 -16 -5 -3 -10 1 -10 9 0 18 6 21 15 7z m-70 -41 c3 -6 -1
-7 -9 -4 -18 7 -21 14 -7 14 6 0 13 -4 16 -10z m-35 -26 c0 -14 -4 -23 -10
-19 -5 3 -10 15 -10 26 0 10 5 19 10 19 6 0 10 -12 10 -26z m1210 -134 c0 -13
-5 -18 -15 -14 -12 5 -13 10 -4 20 15 19 19 18 19 -6z"/>
<path d="M4437 6183 c-2 -32 0 -64 5 -70 8 -10 136 -13 579 -13 l569 0 0 64
c0 49 -4 65 -16 70 -9 3 -267 6 -574 6 l-558 0 -5 -57z"/>
<path d="M6060 6153 c0 -29 10 -53 22 -53 6 0 7 11 3 28 -9 36 -25 52 -25 25z"/>
<path d="M4027 5790 c-104 -27 -178 -88 -227 -188 -43 -88 -41 -150 5 -242 40
-80 74 -109 171 -146 90 -34 152 -29 256 19 68 31 78 40 110 93 79 130 77 227
-8 350 -63 92 -196 142 -307 114z m14 -250 c9 0 3 -84 -7 -101 -2 -4 -15 -4
-29 -1 -18 3 -24 10 -21 21 2 9 7 33 11 54 5 29 10 37 21 33 9 -3 20 -6 25 -6z
m99 -5 c0 -3 -8 -22 -17 -43 -16 -35 -17 -36 -21 -12 -2 14 -11 33 -19 43 -15
16 -14 17 20 17 21 0 37 -2 37 -5z m-78 -57 c-7 -7 -12 -8 -12 -2 0 14 12 26
19 19 2 -3 -1 -11 -7 -17z m62 -94 c28 -11 18 -27 -11 -19 -37 9 -53 25 -26
25 12 0 28 -3 37 -6z"/>
<path d="M5895 5787 c-48 -13 -129 -59 -152 -89 -70 -88 -91 -209 -53 -303 30
-73 128 -166 198 -186 80 -24 162 -17 235 19 118 58 167 128 175 248 3 56 0
80 -16 115 -37 83 -74 122 -153 162 -85 43 -158 53 -234 34z m13 -263 c30 -21
28 -51 -8 -85 -36 -35 -44 -36 -75 -4 -30 29 -32 58 -5 85 24 24 57 26 88 4z"/>
<path d="M5448 4951 c-191 -101 -382 -132 -587 -96 -101 18 -153 36 -243 87
-80 45 -100 47 -127 12 -44 -56 -13 -100 115 -161 129 -61 224 -84 375 -90
198 -9 346 27 499 119 92 56 100 63 100 94 0 22 -35 74 -50 74 -5 0 -41 -17
-82 -39z"/>
<path d="M6022 4884 c-43 -30 -16 -104 39 -104 39 0 66 79 37 108 -17 17 -49
15 -76 -4z m66 -6 c21 -21 15 -67 -12 -79 -32 -15 -66 4 -66 36 0 44 50 71 78
43z"/>
<path d="M6291 8493 c-1 -7 -10 -13 -20 -13 -30 0 -61 -51 -61 -102 0 -41 3
-46 35 -61 53 -25 101 -22 132 9 22 22 25 32 21 76 -6 57 -25 78 -69 78 -15 0
-30 6 -32 13 -4 10 -6 10 -6 0z"/>
<path d="M6115 8270 c3 -5 11 -10 16 -10 6 0 7 5 4 10 -3 6 -11 10 -16 10 -6
0 -7 -4 -4 -10z"/>
<path d="M2675 7903 c-34 -8 -38 -20 -5 -15 16 2 30 8 30 13 0 5 -1 8 -2 8 -2
-1 -12 -3 -23 -6z"/>
<path d="M2616 7859 c3 -10 -1 -19 -10 -22 -10 -4 -13 -13 -9 -23 4 -12 3 -15
-5 -10 -7 4 -12 2 -12 -3 0 -6 6 -11 14 -11 8 0 17 -8 19 -17 3 -10 5 -3 6 15
1 25 5 32 21 32 11 0 20 5 20 10 0 6 -5 10 -11 10 -7 0 -18 8 -25 18 -12 14
-13 14 -8 1z"/>
<path d="M2650 7860 c0 -5 5 -10 10 -10 6 0 10 5 10 10 0 6 -4 10 -10 10 -5 0
-10 -4 -10 -10z"/>
<path d="M2325 7000 c-21 -41 -22 -92 -2 -121 l17 -23 0 22 c0 12 6 24 13 26
6 2 27 8 45 14 36 11 43 -1 20 -37 -9 -15 -9 -25 0 -45 16 -36 27 -32 40 13
21 67 16 82 -42 134 -30 26 -59 47 -65 47 -6 0 -17 -14 -26 -30z"/>
<path d="M2162 7011 c-18 -3 -33 -10 -33 -16 0 -5 15 -13 33 -16 31 -6 31 -7
10 -14 -14 -5 -21 -13 -18 -22 3 -8 2 -12 -3 -9 -5 3 -8 -6 -8 -19 0 -29 5
-31 21 -10 6 8 31 26 56 39 54 29 70 50 52 68 -10 10 -14 10 -21 -1 -6 -9 -11
-10 -15 -2 -8 12 -21 12 -74 2z m58 -41 c0 -5 -4 -10 -10 -10 -5 0 -10 5 -10
10 0 6 5 10 10 10 6 0 10 -4 10 -10z"/>
<path d="M7740 6972 c-23 -8 -30 -23 -30 -68 0 -26 6 -47 16 -55 9 -7 20 -23
25 -36 9 -25 37 -31 43 -10 2 6 11 33 19 59 8 26 10 45 6 42 -8 -4 -14 34 -10
59 0 4 -2 8 -6 8 -28 5 -50 5 -63 1z"/>
<path d="M2298 6873 c7 -3 16 -2 19 1 4 3 -2 6 -13 5 -11 0 -14 -3 -6 -6z"/>
<path d="M2150 6860 c0 -14 15 -19 29 -11 9 6 7 10 -8 14 -12 3 -21 1 -21 -3z"/>
<path d="M2410 6760 c0 -37 28 -96 40 -84 9 10 -20 114 -32 114 -5 0 -8 -14
-8 -30z"/>
<path d="M2162 4946 c4 -5 1 -18 -7 -30 -19 -27 -19 -80 0 -96 8 -7 12 -16 9
-21 -3 -5 4 -5 15 -1 11 4 20 11 20 16 -1 5 5 12 11 16 17 11 25 80 9 80 -7 0
-24 10 -38 23 -14 12 -23 18 -19 13z"/>
<path d="M2101 4850 c0 -8 4 -22 9 -30 12 -18 12 -2 0 25 -6 13 -9 15 -9 5z"/>
<path d="M5912 3848 c-17 -17 -15 -39 5 -68 9 -13 16 -38 15 -54 -2 -39 23
-68 69 -82 34 -11 37 -10 54 18 23 39 10 70 -61 142 -57 60 -63 63 -82 44z"/>
<path d="M6500 3817 c0 -8 7 -17 15 -20 13 -5 13 -10 0 -41 -17 -40 -20 -86
-6 -86 5 0 11 6 14 13 3 9 9 8 23 -5 25 -22 74 -41 74 -28 0 6 6 10 14 10 13
0 56 49 56 64 0 3 -9 6 -20 6 -11 0 -20 4 -20 9 0 5 -9 13 -21 16 -11 4 -25
18 -31 31 -9 19 -17 24 -33 20 -12 -3 -31 1 -43 10 -19 13 -22 13 -22 1z"/>
<path d="M6647 3791 c-5 -19 8 -30 40 -37 15 -3 2 26 -20 45 -12 9 -16 8 -20
-8z"/>
</g>
</svg>
